<?xml version="1.0" encoding="UTF-8" standalone="no"?><svg xmlns="http://www.w3.org/2000/svg" xmlns:xlink="http://www.w3.org/1999/xlink" contentScriptType="application/ecmascript" contentStyleType="text/css" height="1067px" preserveAspectRatio="none" style="width:1784px;height:1067px;" version="1.1" viewBox="0 0 1784 1067" width="1784px" zoomAndPan="magnify"><defs><filter height="300%" id="faq43n3jpixhb" width="300%" x="-1" y="-1"><feGaussianBlur result="blurOut" stdDeviation="2.0"/><feColorMatrix in="blurOut" result="blurOut2" type="matrix" values="0 0 0 0 0 0 0 0 0 0 0 0 0 0 0 0 0 0 .4 0"/><feOffset dx="4.0" dy="4.0" in="blurOut2" result="blurOut3"/><feBlend in="SourceGraphic" in2="blurOut3" mode="normal"/></filter></defs><g><!--MD5=[1d7ba1c7002d54515419844fbd155368]
class Controller--><rect fill="#FEFECE" filter="url(#faq43n3jpixhb)" height="137.6328" id="Controller" style="stroke: #A80036; stroke-width: 1.5;" width="297" x="594.5" y="167"/><ellipse cx="708.25" cy="183" fill="#A9DCDF" rx="11" ry="11" style="stroke: #A80036; stroke-width: 1.0;"/><path d="M709.8281,184.8125 L705.7813,184.8125 L705.3906,185.7969 L705.7813,185.7969 C706.2344,185.7969 706.375,185.8281 706.5469,185.9531 C706.7656,186.125 706.8906,186.375 706.8906,186.6563 C706.8906,186.9375 706.75,187.2344 706.4844,187.375 C706.3594,187.4688 706.1406,187.5 705.7813,187.5 L703.5156,187.5 C702.7656,187.5 702.3906,187.2188 702.3906,186.6563 C702.3906,186.3594 702.5469,186.0781 702.7969,185.9219 C702.9531,185.8125 703.1094,185.7969 703.5313,185.7969 L706.1719,179.2813 L705.0938,179.2813 C704.6563,179.2813 704.4844,179.25 704.3125,179.1406 C704.0938,178.9688 703.9531,178.7188 703.9531,178.4375 C703.9531,178.1563 704.1094,177.875 704.3594,177.7031 C704.5156,177.6094 704.6406,177.5938 705.0938,177.5938 L708.7656,177.5938 L712.1563,185.7969 C712.625,185.7969 712.7813,185.8281 712.9531,185.9688 C713.1719,186.125 713.3125,186.375 713.3125,186.6563 C713.3125,186.9375 713.1563,187.2344 712.9063,187.375 C712.7656,187.4688 712.5469,187.5 712.1875,187.5 L709.8281,187.5 C709.4063,187.5 709.2031,187.4531 709.0625,187.3281 C708.8438,187.1719 708.7031,186.9219 708.7031,186.6563 C708.7031,186.3594 708.8594,186.0781 709.1094,185.9219 C709.2656,185.8125 709.375,185.7969 709.8281,185.7969 L710.2188,185.7969 Z M709.125,183.1094 L707.7969,179.8438 L706.4531,183.1094 Z "/><text fill="#000000" font-family="sans-serif" font-size="12" font-style="italic" lengthAdjust="spacingAndGlyphs" textLength="61" x="728.75" y="187.1543">Controller</text><line style="stroke: #A80036; stroke-width: 1.5;" x1="595.5" x2="890.5" y1="199" y2="199"/><ellipse cx="605.5" cy="210" fill="none" rx="3" ry="3" style="stroke: #038048; stroke-width: 1.0;"/><text fill="#000000" font-family="sans-serif" font-size="11" lengthAdjust="spacingAndGlyphs" textLength="70" x="614.5" y="213.2104">Game game</text><ellipse cx="605.5" cy="222.8047" fill="none" rx="3" ry="3" style="stroke: #038048; stroke-width: 1.0;"/><text fill="#000000" font-family="sans-serif" font-size="11" lengthAdjust="spacingAndGlyphs" textLength="161" x="614.5" y="226.0151">StateManager stateManager</text><line style="stroke: #A80036; stroke-width: 1.5;" x1="595.5" x2="890.5" y1="232.6094" y2="232.6094"/><ellipse cx="605.5" cy="243.6094" fill="#84BE84" rx="3" ry="3" style="stroke: #038048; stroke-width: 1.0;"/><text fill="#000000" font-family="sans-serif" font-size="11" lengthAdjust="spacingAndGlyphs" textLength="178" x="614.5" y="246.8198">abstract void accept(View view)</text><ellipse cx="605.5" cy="256.4141" fill="#84BE84" rx="3" ry="3" style="stroke: #038048; stroke-width: 1.0;"/><text fill="#000000" font-family="sans-serif" font-size="11" lengthAdjust="spacingAndGlyphs" textLength="95" x="614.5" y="259.6245">int getAttempts()</text><ellipse cx="605.5" cy="269.2188" fill="#84BE84" rx="3" ry="3" style="stroke: #038048; stroke-width: 1.0;"/><text fill="#000000" font-family="sans-serif" font-size="11" lengthAdjust="spacingAndGlyphs" textLength="271" x="614.5" y="272.4292">ArrayList&lt;ProposedCode&gt; getProposedCodes()</text><ellipse cx="605.5" cy="282.0234" fill="#84BE84" rx="3" ry="3" style="stroke: #038048; stroke-width: 1.0;"/><text fill="#000000" font-family="sans-serif" font-size="11" lengthAdjust="spacingAndGlyphs" textLength="96" x="614.5" y="285.2339">void addAtempt()</text><ellipse cx="605.5" cy="294.8281" fill="#84BE84" rx="3" ry="3" style="stroke: #038048; stroke-width: 1.0;"/><text fill="#000000" font-family="sans-serif" font-size="11" lengthAdjust="spacingAndGlyphs" textLength="162" x="614.5" y="298.0386">SecretCode getSecretCode()</text><!--MD5=[42fa18dda7351a0ae87d9497de925436]
class Logic--><rect fill="#FEFECE" filter="url(#faq43n3jpixhb)" height="124.8281" id="Logic" style="stroke: #A80036; stroke-width: 1.5;" width="226" x="333" y="173.5"/><ellipse cx="425.75" cy="189.5" fill="#ADD1B2" rx="11" ry="11" style="stroke: #A80036; stroke-width: 1.0;"/><path d="M428.0938,185.1719 L428.2656,185.25 C428.4844,184.9375 428.6875,184.8438 428.9844,184.8438 C429.2813,184.8438 429.5625,184.9844 429.7188,185.25 C429.8125,185.4063 429.8281,185.5313 429.8281,185.9688 L429.8281,187.3906 C429.8281,187.8125 429.7969,188 429.6875,188.1563 C429.5156,188.375 429.25,188.5156 428.9844,188.5156 C428.7656,188.5156 428.5313,188.4063 428.3906,188.2656 C428.25,188.1406 428.2188,188.0156 428.1563,187.6094 C428.0625,187.2031 427.8906,186.9844 427.4063,186.7031 C426.9375,186.4531 426.3281,186.2969 425.75,186.2969 C424.0156,186.2969 422.7656,187.6094 422.7656,189.3906 L422.7656,190.4844 C422.7656,192.1875 424.0625,193.2813 426.1094,193.2813 C426.875,193.2813 427.5625,193.1563 427.9844,192.8906 C428.1719,192.7969 428.1719,192.7969 428.625,192.3125 C428.8125,192.125 429.0156,192.0469 429.2344,192.0469 C429.7031,192.0469 430.0938,192.4375 430.0938,192.8906 C430.0938,193.2813 429.7656,193.7344 429.1875,194.1406 C428.4375,194.6875 427.2813,194.9844 426.0625,194.9844 C423.1719,194.9844 421.0625,193.0938 421.0625,190.5156 L421.0625,189.3906 C421.0625,186.6719 423.0625,184.5938 425.6875,184.5938 C426.5625,184.5938 427.1563,184.7344 428.0938,185.1719 Z "/><text fill="#000000" font-family="sans-serif" font-size="12" lengthAdjust="spacingAndGlyphs" textLength="32" x="446.25" y="193.6543">Logic</text><line style="stroke: #A80036; stroke-width: 1.5;" x1="334" x2="558" y1="205.5" y2="205.5"/><rect fill="none" height="6" style="stroke: #C82930; stroke-width: 1.0;" width="6" x="341" y="213.5"/><text fill="#000000" font-family="sans-serif" font-size="11" lengthAdjust="spacingAndGlyphs" textLength="161" x="353" y="219.7104">StateManager stateManager</text><rect fill="none" height="6" style="stroke: #C82930; stroke-width: 1.0;" width="6" x="341" y="226.3047"/><text fill="#000000" font-family="sans-serif" font-size="11" lengthAdjust="spacingAndGlyphs" textLength="70" x="353" y="232.5151">Game game</text><rect fill="none" height="6" style="stroke: #C82930; stroke-width: 1.0;" width="6" x="341" y="239.1094"/><text fill="#000000" font-family="sans-serif" font-size="11" lengthAdjust="spacingAndGlyphs" textLength="200" x="353" y="245.3198">Map&lt;State, Controller&gt; controllers</text><line style="stroke: #A80036; stroke-width: 1.5;" x1="334" x2="558" y1="251.9141" y2="251.9141"/><ellipse cx="344" cy="262.9141" fill="#84BE84" rx="3" ry="3" style="stroke: #038048; stroke-width: 1.0;"/><text fill="#000000" font-family="sans-serif" font-size="11" lengthAdjust="spacingAndGlyphs" textLength="37" x="353" y="266.1245">Logic()</text><ellipse cx="344" cy="275.7188" fill="#84BE84" rx="3" ry="3" style="stroke: #038048; stroke-width: 1.0;"/><text fill="#000000" font-family="sans-serif" font-size="11" lengthAdjust="spacingAndGlyphs" textLength="142" x="353" y="278.9292">Controller getController()</text><ellipse cx="344" cy="288.5234" fill="#84BE84" rx="3" ry="3" style="stroke: #038048; stroke-width: 1.0;"/><text fill="#000000" font-family="sans-serif" font-size="11" lengthAdjust="spacingAndGlyphs" textLength="90" x="353" y="291.7339">State getState()</text><!--MD5=[91f6b85afc6bcc81567ebb0e4b213d8b]
class ProposedCodeState--><rect fill="#FEFECE" filter="url(#faq43n3jpixhb)" height="48" id="ProposedCodeState" style="stroke: #A80036; stroke-width: 1.5;" width="158" x="549" y="1002.5"/><ellipse cx="564" cy="1018.5" fill="#EB937F" rx="11" ry="11" style="stroke: #A80036; stroke-width: 1.0;"/><path d="M562.2969,1019.375 L562.2969,1021.7969 L566.6563,1021.7969 L566.6563,1020.9219 C566.6563,1020.4375 566.6875,1020.2969 566.7969,1020.1406 C566.9688,1019.8906 567.2344,1019.7813 567.5,1019.7813 C567.7813,1019.7813 568.0625,1019.9375 568.2344,1020.1875 C568.3125,1020.3438 568.3438,1020.4844 568.3438,1020.9219 L568.3438,1023.5 L560.3438,1023.5 C559.9531,1023.5 559.7188,1023.4531 559.5781,1023.3281 C559.3594,1023.1719 559.2188,1022.9219 559.2188,1022.6563 C559.2188,1022.3594 559.375,1022.0938 559.625,1021.9219 C559.7813,1021.8125 559.9375,1021.7969 560.3438,1021.7969 L560.5938,1021.7969 L560.5938,1015.2813 L560.3438,1015.2813 C559.9219,1015.2813 559.7344,1015.25 559.5781,1015.1406 C559.3594,1014.9688 559.2188,1014.7188 559.2188,1014.4375 C559.2188,1014.1563 559.375,1013.8594 559.625,1013.7031 C559.7813,1013.6094 559.9063,1013.5938 560.3438,1013.5938 L567.9688,1013.5938 L567.9688,1016.1406 C567.9688,1016.6094 567.9375,1016.75 567.8281,1016.9219 C567.6563,1017.1406 567.3906,1017.2813 567.125,1017.2813 C566.8438,1017.2813 566.5625,1017.125 566.3906,1016.875 C566.3125,1016.7188 566.2813,1016.5469 566.2813,1016.1406 L566.2813,1015.2813 L562.2969,1015.2813 L562.2969,1017.6875 L563.75,1017.6875 L563.75,1017.5625 C563.75,1017.1094 563.7813,1016.9531 563.8906,1016.7813 C564.0625,1016.5625 564.3281,1016.4219 564.5781,1016.4219 C565.0313,1016.4219 565.3438,1016.7344 565.4063,1017.2031 C565.4219,1017.3594 565.4219,1017.4063 565.4219,1017.5625 L565.4219,1019.4844 C565.4219,1019.9375 565.3906,1020.0938 565.2656,1020.25 C565.1094,1020.4688 564.8438,1020.6094 564.5938,1020.6094 C564.2969,1020.6094 564.0156,1020.4531 563.8594,1020.2031 C563.7813,1020.0469 563.75,1019.8906 563.75,1019.4844 L563.75,1019.375 Z "/><text fill="#000000" font-family="sans-serif" font-size="12" lengthAdjust="spacingAndGlyphs" textLength="126" x="578" y="1022.6543">ProposedCodeState</text><line style="stroke: #A80036; stroke-width: 1.5;" x1="550" x2="706" y1="1034.5" y2="1034.5"/><line style="stroke: #A80036; stroke-width: 1.5;" x1="550" x2="706" y1="1042.5" y2="1042.5"/><!--MD5=[47c371471411cfedeee61b1a5bdaee47]
class StartController--><rect fill="#FEFECE" filter="url(#faq43n3jpixhb)" height="73.6094" id="StartController" style="stroke: #A80036; stroke-width: 1.5;" width="153" x="585.5" y="843"/><ellipse cx="613.55" cy="859" fill="#ADD1B2" rx="11" ry="11" style="stroke: #A80036; stroke-width: 1.0;"/><path d="M615.8938,854.6719 L616.0656,854.75 C616.2844,854.4375 616.4875,854.3438 616.7844,854.3438 C617.0813,854.3438 617.3625,854.4844 617.5188,854.75 C617.6125,854.9063 617.6281,855.0313 617.6281,855.4688 L617.6281,856.8906 C617.6281,857.3125 617.5969,857.5 617.4875,857.6563 C617.3156,857.875 617.05,858.0156 616.7844,858.0156 C616.5656,858.0156 616.3313,857.9063 616.1906,857.7656 C616.05,857.6406 616.0188,857.5156 615.9563,857.1094 C615.8625,856.7031 615.6906,856.4844 615.2063,856.2031 C614.7375,855.9531 614.1281,855.7969 613.55,855.7969 C611.8156,855.7969 610.5656,857.1094 610.5656,858.8906 L610.5656,859.9844 C610.5656,861.6875 611.8625,862.7813 613.9094,862.7813 C614.675,862.7813 615.3625,862.6563 615.7844,862.3906 C615.9719,862.2969 615.9719,862.2969 616.425,861.8125 C616.6125,861.625 616.8156,861.5469 617.0344,861.5469 C617.5031,861.5469 617.8938,861.9375 617.8938,862.3906 C617.8938,862.7813 617.5656,863.2344 616.9875,863.6406 C616.2375,864.1875 615.0813,864.4844 613.8625,864.4844 C610.9719,864.4844 608.8625,862.5938 608.8625,860.0156 L608.8625,858.8906 C608.8625,856.1719 610.8625,854.0938 613.4875,854.0938 C614.3625,854.0938 614.9563,854.2344 615.8938,854.6719 Z "/><text fill="#000000" font-family="sans-serif" font-size="12" lengthAdjust="spacingAndGlyphs" textLength="92" x="630.45" y="863.1543">StartController</text><line style="stroke: #A80036; stroke-width: 1.5;" x1="586.5" x2="737.5" y1="875" y2="875"/><line style="stroke: #A80036; stroke-width: 1.5;" x1="586.5" x2="737.5" y1="883" y2="883"/><ellipse cx="596.5" cy="894" fill="#84BE84" rx="3" ry="3" style="stroke: #038048; stroke-width: 1.0;"/><text fill="#000000" font-family="sans-serif" font-size="11" lengthAdjust="spacingAndGlyphs" textLength="127" x="605.5" y="897.2104">void accept(View view)</text><ellipse cx="596.5" cy="906.8047" fill="#84BE84" rx="3" ry="3" style="stroke: #038048; stroke-width: 1.0;"/><text fill="#000000" font-family="sans-serif" font-size="11" lengthAdjust="spacingAndGlyphs" textLength="62" x="605.5" y="910.0151">void start()</text><!--MD5=[1a47bbf44ccee225df9b18c5b6629853]
class ResumeController--><rect fill="#FEFECE" filter="url(#faq43n3jpixhb)" height="73.6094" id="ResumeController" style="stroke: #A80036; stroke-width: 1.5;" width="153" x="397.5" y="843"/><ellipse cx="417" cy="859" fill="#ADD1B2" rx="11" ry="11" style="stroke: #A80036; stroke-width: 1.0;"/><path d="M419.3438,854.6719 L419.5156,854.75 C419.7344,854.4375 419.9375,854.3438 420.2344,854.3438 C420.5313,854.3438 420.8125,854.4844 420.9688,854.75 C421.0625,854.9063 421.0781,855.0313 421.0781,855.4688 L421.0781,856.8906 C421.0781,857.3125 421.0469,857.5 420.9375,857.6563 C420.7656,857.875 420.5,858.0156 420.2344,858.0156 C420.0156,858.0156 419.7813,857.9063 419.6406,857.7656 C419.5,857.6406 419.4688,857.5156 419.4063,857.1094 C419.3125,856.7031 419.1406,856.4844 418.6563,856.2031 C418.1875,855.9531 417.5781,855.7969 417,855.7969 C415.2656,855.7969 414.0156,857.1094 414.0156,858.8906 L414.0156,859.9844 C414.0156,861.6875 415.3125,862.7813 417.3594,862.7813 C418.125,862.7813 418.8125,862.6563 419.2344,862.3906 C419.4219,862.2969 419.4219,862.2969 419.875,861.8125 C420.0625,861.625 420.2656,861.5469 420.4844,861.5469 C420.9531,861.5469 421.3438,861.9375 421.3438,862.3906 C421.3438,862.7813 421.0156,863.2344 420.4375,863.6406 C419.6875,864.1875 418.5313,864.4844 417.3125,864.4844 C414.4219,864.4844 412.3125,862.5938 412.3125,860.0156 L412.3125,858.8906 C412.3125,856.1719 414.3125,854.0938 416.9375,854.0938 C417.8125,854.0938 418.4063,854.2344 419.3438,854.6719 Z "/><text fill="#000000" font-family="sans-serif" font-size="12" lengthAdjust="spacingAndGlyphs" textLength="111" x="432" y="863.1543">ResumeController</text><line style="stroke: #A80036; stroke-width: 1.5;" x1="398.5" x2="549.5" y1="875" y2="875"/><line style="stroke: #A80036; stroke-width: 1.5;" x1="398.5" x2="549.5" y1="883" y2="883"/><ellipse cx="408.5" cy="894" fill="#84BE84" rx="3" ry="3" style="stroke: #038048; stroke-width: 1.0;"/><text fill="#000000" font-family="sans-serif" font-size="11" lengthAdjust="spacingAndGlyphs" textLength="127" x="417.5" y="897.2104">void accept(View view)</text><ellipse cx="408.5" cy="906.8047" fill="#84BE84" rx="3" ry="3" style="stroke: #038048; stroke-width: 1.0;"/><text fill="#000000" font-family="sans-serif" font-size="11" lengthAdjust="spacingAndGlyphs" textLength="62" x="417.5" y="910.0151">void start()</text><!--MD5=[0b95e4ee8b160a2b3b0650a9b235c496]
class ProposeController--><rect fill="#FEFECE" filter="url(#faq43n3jpixhb)" height="112.0234" id="ProposeController" style="stroke: #A80036; stroke-width: 1.5;" width="356" x="6" y="824"/><ellipse cx="123.25" cy="840" fill="#ADD1B2" rx="11" ry="11" style="stroke: #A80036; stroke-width: 1.0;"/><path d="M125.5938,835.6719 L125.7656,835.75 C125.9844,835.4375 126.1875,835.3438 126.4844,835.3438 C126.7813,835.3438 127.0625,835.4844 127.2188,835.75 C127.3125,835.9063 127.3281,836.0313 127.3281,836.4688 L127.3281,837.8906 C127.3281,838.3125 127.2969,838.5 127.1875,838.6563 C127.0156,838.875 126.75,839.0156 126.4844,839.0156 C126.2656,839.0156 126.0313,838.9063 125.8906,838.7656 C125.75,838.6406 125.7188,838.5156 125.6563,838.1094 C125.5625,837.7031 125.3906,837.4844 124.9063,837.2031 C124.4375,836.9531 123.8281,836.7969 123.25,836.7969 C121.5156,836.7969 120.2656,838.1094 120.2656,839.8906 L120.2656,840.9844 C120.2656,842.6875 121.5625,843.7813 123.6094,843.7813 C124.375,843.7813 125.0625,843.6563 125.4844,843.3906 C125.6719,843.2969 125.6719,843.2969 126.125,842.8125 C126.3125,842.625 126.5156,842.5469 126.7344,842.5469 C127.2031,842.5469 127.5938,842.9375 127.5938,843.3906 C127.5938,843.7813 127.2656,844.2344 126.6875,844.6406 C125.9375,845.1875 124.7813,845.4844 123.5625,845.4844 C120.6719,845.4844 118.5625,843.5938 118.5625,841.0156 L118.5625,839.8906 C118.5625,837.1719 120.5625,835.0938 123.1875,835.0938 C124.0625,835.0938 124.6563,835.2344 125.5938,835.6719 Z "/><text fill="#000000" font-family="sans-serif" font-size="12" lengthAdjust="spacingAndGlyphs" textLength="113" x="143.75" y="844.1543">ProposeController</text><line style="stroke: #A80036; stroke-width: 1.5;" x1="7" x2="361" y1="856" y2="856"/><line style="stroke: #A80036; stroke-width: 1.5;" x1="7" x2="361" y1="864" y2="864"/><ellipse cx="17" cy="875" fill="#84BE84" rx="3" ry="3" style="stroke: #038048; stroke-width: 1.0;"/><text fill="#000000" font-family="sans-serif" font-size="11" lengthAdjust="spacingAndGlyphs" textLength="127" x="26" y="878.2104">void accept(View view)</text><ellipse cx="17" cy="887.8047" fill="#84BE84" rx="3" ry="3" style="stroke: #038048; stroke-width: 1.0;"/><text fill="#000000" font-family="sans-serif" font-size="11" lengthAdjust="spacingAndGlyphs" textLength="326" x="26" y="891.0151">ProposedCodeState propose(String stringProposedCode)</text><rect fill="#F24D5C" height="6" style="stroke: #C82930; stroke-width: 1.0;" width="6" x="14" y="897.6094"/><text fill="#000000" font-family="sans-serif" font-size="11" lengthAdjust="spacingAndGlyphs" textLength="105" x="26" y="903.8198">boolean isWinner()</text><rect fill="#F24D5C" height="6" style="stroke: #C82930; stroke-width: 1.0;" width="6" x="14" y="910.4141"/><text fill="#000000" font-family="sans-serif" font-size="11" lengthAdjust="spacingAndGlyphs" textLength="330" x="26" y="916.6245">boolean createProposedCode(String stringProposedCode)</text><rect fill="#F24D5C" height="6" style="stroke: #C82930; stroke-width: 1.0;" width="6" x="14" y="923.2188"/><text fill="#000000" font-family="sans-serif" font-size="11" lengthAdjust="spacingAndGlyphs" textLength="164" x="26" y="929.4292">boolean attemptsRemained()</text><!--MD5=[60d6b92408f98aed8df94d5c6e04aa63]
class State--><rect fill="#FEFECE" filter="url(#faq43n3jpixhb)" height="48" id="State" style="stroke: #A80036; stroke-width: 1.5;" width="66" x="1584" y="212"/><ellipse cx="1599" cy="228" fill="#EB937F" rx="11" ry="11" style="stroke: #A80036; stroke-width: 1.0;"/><path d="M1597.2969,228.875 L1597.2969,231.2969 L1601.6563,231.2969 L1601.6563,230.4219 C1601.6563,229.9375 1601.6875,229.7969 1601.7969,229.6406 C1601.9688,229.3906 1602.2344,229.2813 1602.5,229.2813 C1602.7813,229.2813 1603.0625,229.4375 1603.2344,229.6875 C1603.3125,229.8438 1603.3438,229.9844 1603.3438,230.4219 L1603.3438,233 L1595.3438,233 C1594.9531,233 1594.7188,232.9531 1594.5781,232.8281 C1594.3594,232.6719 1594.2188,232.4219 1594.2188,232.1563 C1594.2188,231.8594 1594.375,231.5938 1594.625,231.4219 C1594.7813,231.3125 1594.9375,231.2969 1595.3438,231.2969 L1595.5938,231.2969 L1595.5938,224.7813 L1595.3438,224.7813 C1594.9219,224.7813 1594.7344,224.75 1594.5781,224.6406 C1594.3594,224.4688 1594.2188,224.2188 1594.2188,223.9375 C1594.2188,223.6563 1594.375,223.3594 1594.625,223.2031 C1594.7813,223.1094 1594.9063,223.0938 1595.3438,223.0938 L1602.9688,223.0938 L1602.9688,225.6406 C1602.9688,226.1094 1602.9375,226.25 1602.8281,226.4219 C1602.6563,226.6406 1602.3906,226.7813 1602.125,226.7813 C1601.8438,226.7813 1601.5625,226.625 1601.3906,226.375 C1601.3125,226.2188 1601.2813,226.0469 1601.2813,225.6406 L1601.2813,224.7813 L1597.2969,224.7813 L1597.2969,227.1875 L1598.75,227.1875 L1598.75,227.0625 C1598.75,226.6094 1598.7813,226.4531 1598.8906,226.2813 C1599.0625,226.0625 1599.3281,225.9219 1599.5781,225.9219 C1600.0313,225.9219 1600.3438,226.2344 1600.4063,226.7031 C1600.4219,226.8594 1600.4219,226.9063 1600.4219,227.0625 L1600.4219,228.9844 C1600.4219,229.4375 1600.3906,229.5938 1600.2656,229.75 C1600.1094,229.9688 1599.8438,230.1094 1599.5938,230.1094 C1599.2969,230.1094 1599.0156,229.9531 1598.8594,229.7031 C1598.7813,229.5469 1598.75,229.3906 1598.75,228.9844 L1598.75,228.875 Z "/><text fill="#000000" font-family="sans-serif" font-size="12" lengthAdjust="spacingAndGlyphs" textLength="34" x="1613" y="232.1543">State</text><line style="stroke: #A80036; stroke-width: 1.5;" x1="1585" x2="1649" y1="244" y2="244"/><line style="stroke: #A80036; stroke-width: 1.5;" x1="1585" x2="1649" y1="252" y2="252"/><!--MD5=[cbf0a99579943142de3800bada93d1b9]
class StateManager--><rect fill="#FEFECE" filter="url(#faq43n3jpixhb)" height="99.2188" id="StateManager" style="stroke: #A80036; stroke-width: 1.5;" width="147" x="669.5" y="8"/><ellipse cx="696.2" cy="24" fill="#ADD1B2" rx="11" ry="11" style="stroke: #A80036; stroke-width: 1.0;"/><path d="M698.5438,19.6719 L698.7156,19.75 C698.9344,19.4375 699.1375,19.3438 699.4344,19.3438 C699.7313,19.3438 700.0125,19.4844 700.1688,19.75 C700.2625,19.9063 700.2781,20.0313 700.2781,20.4688 L700.2781,21.8906 C700.2781,22.3125 700.2469,22.5 700.1375,22.6563 C699.9656,22.875 699.7,23.0156 699.4344,23.0156 C699.2156,23.0156 698.9813,22.9063 698.8406,22.7656 C698.7,22.6406 698.6688,22.5156 698.6063,22.1094 C698.5125,21.7031 698.3406,21.4844 697.8563,21.2031 C697.3875,20.9531 696.7781,20.7969 696.2,20.7969 C694.4656,20.7969 693.2156,22.1094 693.2156,23.8906 L693.2156,24.9844 C693.2156,26.6875 694.5125,27.7813 696.5594,27.7813 C697.325,27.7813 698.0125,27.6563 698.4344,27.3906 C698.6219,27.2969 698.6219,27.2969 699.075,26.8125 C699.2625,26.625 699.4656,26.5469 699.6844,26.5469 C700.1531,26.5469 700.5438,26.9375 700.5438,27.3906 C700.5438,27.7813 700.2156,28.2344 699.6375,28.6406 C698.8875,29.1875 697.7313,29.4844 696.5125,29.4844 C693.6219,29.4844 691.5125,27.5938 691.5125,25.0156 L691.5125,23.8906 C691.5125,21.1719 693.5125,19.0938 696.1375,19.0938 C697.0125,19.0938 697.6063,19.2344 698.5438,19.6719 Z "/><text fill="#000000" font-family="sans-serif" font-size="12" lengthAdjust="spacingAndGlyphs" textLength="89" x="712.8" y="28.1543">StateManager</text><line style="stroke: #A80036; stroke-width: 1.5;" x1="670.5" x2="815.5" y1="40" y2="40"/><rect fill="none" height="6" style="stroke: #C82930; stroke-width: 1.0;" width="6" x="677.5" y="48"/><text fill="#000000" font-family="sans-serif" font-size="11" lengthAdjust="spacingAndGlyphs" textLength="63" x="689.5" y="54.2104">State state</text><line style="stroke: #A80036; stroke-width: 1.5;" x1="670.5" x2="815.5" y1="60.8047" y2="60.8047"/><ellipse cx="680.5" cy="71.8047" fill="#84BE84" rx="3" ry="3" style="stroke: #038048; stroke-width: 1.0;"/><text fill="#000000" font-family="sans-serif" font-size="11" lengthAdjust="spacingAndGlyphs" textLength="59" x="689.5" y="75.0151">void next()</text><ellipse cx="680.5" cy="84.6094" fill="#84BE84" rx="3" ry="3" style="stroke: #038048; stroke-width: 1.0;"/><text fill="#000000" font-family="sans-serif" font-size="11" lengthAdjust="spacingAndGlyphs" textLength="65" x="689.5" y="87.8198">void reset()</text><ellipse cx="680.5" cy="97.4141" fill="#84BE84" rx="3" ry="3" style="stroke: #038048; stroke-width: 1.0;"/><text fill="#000000" font-family="sans-serif" font-size="11" lengthAdjust="spacingAndGlyphs" textLength="121" x="689.5" y="100.6245">State getValueState()</text><!--MD5=[d8c8cfd5ca149094f5b67f9f607a5ec7]
class Token--><rect fill="#FEFECE" filter="url(#faq43n3jpixhb)" height="73.6094" id="Token" style="stroke: #A80036; stroke-width: 1.5;" width="264" x="1285" y="199"/><ellipse cx="1393.75" cy="215" fill="#EB937F" rx="11" ry="11" style="stroke: #A80036; stroke-width: 1.0;"/><path d="M1392.0469,215.875 L1392.0469,218.2969 L1396.4063,218.2969 L1396.4063,217.4219 C1396.4063,216.9375 1396.4375,216.7969 1396.5469,216.6406 C1396.7188,216.3906 1396.9844,216.2813 1397.25,216.2813 C1397.5313,216.2813 1397.8125,216.4375 1397.9844,216.6875 C1398.0625,216.8438 1398.0938,216.9844 1398.0938,217.4219 L1398.0938,220 L1390.0938,220 C1389.7031,220 1389.4688,219.9531 1389.3281,219.8281 C1389.1094,219.6719 1388.9688,219.4219 1388.9688,219.1563 C1388.9688,218.8594 1389.125,218.5938 1389.375,218.4219 C1389.5313,218.3125 1389.6875,218.2969 1390.0938,218.2969 L1390.3438,218.2969 L1390.3438,211.7813 L1390.0938,211.7813 C1389.6719,211.7813 1389.4844,211.75 1389.3281,211.6406 C1389.1094,211.4688 1388.9688,211.2188 1388.9688,210.9375 C1388.9688,210.6563 1389.125,210.3594 1389.375,210.2031 C1389.5313,210.1094 1389.6563,210.0938 1390.0938,210.0938 L1397.7188,210.0938 L1397.7188,212.6406 C1397.7188,213.1094 1397.6875,213.25 1397.5781,213.4219 C1397.4063,213.6406 1397.1406,213.7813 1396.875,213.7813 C1396.5938,213.7813 1396.3125,213.625 1396.1406,213.375 C1396.0625,213.2188 1396.0313,213.0469 1396.0313,212.6406 L1396.0313,211.7813 L1392.0469,211.7813 L1392.0469,214.1875 L1393.5,214.1875 L1393.5,214.0625 C1393.5,213.6094 1393.5313,213.4531 1393.6406,213.2813 C1393.8125,213.0625 1394.0781,212.9219 1394.3281,212.9219 C1394.7813,212.9219 1395.0938,213.2344 1395.1563,213.7031 C1395.1719,213.8594 1395.1719,213.9063 1395.1719,214.0625 L1395.1719,215.9844 C1395.1719,216.4375 1395.1406,216.5938 1395.0156,216.75 C1394.8594,216.9688 1394.5938,217.1094 1394.3438,217.1094 C1394.0469,217.1094 1393.7656,216.9531 1393.6094,216.7031 C1393.5313,216.5469 1393.5,216.3906 1393.5,215.9844 L1393.5,215.875 Z "/><text fill="#000000" font-family="sans-serif" font-size="12" lengthAdjust="spacingAndGlyphs" textLength="38" x="1414.25" y="219.1543">Token</text><line style="stroke: #A80036; stroke-width: 1.5;" x1="1286" x2="1548" y1="231" y2="231"/><line style="stroke: #A80036; stroke-width: 1.5;" x1="1286" x2="1548" y1="239" y2="239"/><ellipse cx="1296" cy="250" fill="#84BE84" rx="3" ry="3" style="stroke: #038048; stroke-width: 1.0;"/><text fill="#000000" font-family="sans-serif" font-size="11" lengthAdjust="spacingAndGlyphs" textLength="219" x="1305" y="253.2104">boolean isToken(Character tokenChar)</text><ellipse cx="1296" cy="262.8047" fill="#84BE84" rx="3" ry="3" style="stroke: #038048; stroke-width: 1.0;"/><text fill="#000000" font-family="sans-serif" font-size="11" lengthAdjust="spacingAndGlyphs" textLength="238" x="1305" y="266.0151">Token createToken (Character tokenChar)</text><!--MD5=[ba580110b1777f63e0f1dfe3fcefdac0]
class Code--><rect fill="#FEFECE" filter="url(#faq43n3jpixhb)" height="73.6094" id="Code" style="stroke: #A80036; stroke-width: 1.5;" width="187" x="1586.5" y="422.5"/><ellipse cx="1659.75" cy="438.5" fill="#A9DCDF" rx="11" ry="11" style="stroke: #A80036; stroke-width: 1.0;"/><path d="M1661.3281,440.3125 L1657.2813,440.3125 L1656.8906,441.2969 L1657.2813,441.2969 C1657.7344,441.2969 1657.875,441.3281 1658.0469,441.4531 C1658.2656,441.625 1658.3906,441.875 1658.3906,442.1563 C1658.3906,442.4375 1658.25,442.7344 1657.9844,442.875 C1657.8594,442.9688 1657.6406,443 1657.2813,443 L1655.0156,443 C1654.2656,443 1653.8906,442.7188 1653.8906,442.1563 C1653.8906,441.8594 1654.0469,441.5781 1654.2969,441.4219 C1654.4531,441.3125 1654.6094,441.2969 1655.0313,441.2969 L1657.6719,434.7813 L1656.5938,434.7813 C1656.1563,434.7813 1655.9844,434.75 1655.8125,434.6406 C1655.5938,434.4688 1655.4531,434.2188 1655.4531,433.9375 C1655.4531,433.6563 1655.6094,433.375 1655.8594,433.2031 C1656.0156,433.1094 1656.1406,433.0938 1656.5938,433.0938 L1660.2656,433.0938 L1663.6563,441.2969 C1664.125,441.2969 1664.2813,441.3281 1664.4531,441.4688 C1664.6719,441.625 1664.8125,441.875 1664.8125,442.1563 C1664.8125,442.4375 1664.6563,442.7344 1664.4063,442.875 C1664.2656,442.9688 1664.0469,443 1663.6875,443 L1661.3281,443 C1660.9063,443 1660.7031,442.9531 1660.5625,442.8281 C1660.3438,442.6719 1660.2031,442.4219 1660.2031,442.1563 C1660.2031,441.8594 1660.3594,441.5781 1660.6094,441.4219 C1660.7656,441.3125 1660.875,441.2969 1661.3281,441.2969 L1661.7188,441.2969 Z M1660.625,438.6094 L1659.2969,435.3438 L1657.9531,438.6094 Z "/><text fill="#000000" font-family="sans-serif" font-size="12" font-style="italic" lengthAdjust="spacingAndGlyphs" textLength="32" x="1680.25" y="442.6543">Code</text><line style="stroke: #A80036; stroke-width: 1.5;" x1="1587.5" x2="1772.5" y1="454.5" y2="454.5"/><ellipse cx="1597.5" cy="465.5" fill="none" rx="3" ry="3" style="stroke: #038048; stroke-width: 1.0;"/><text fill="#000000" font-family="sans-serif" font-size="11" lengthAdjust="spacingAndGlyphs" textLength="133" x="1606.5" y="468.7104">ArrayList&lt;Token&gt; code</text><line style="stroke: #A80036; stroke-width: 1.5;" x1="1587.5" x2="1772.5" y1="475.3047" y2="475.3047"/><ellipse cx="1597.5" cy="486.3047" fill="#84BE84" rx="3" ry="3" style="stroke: #038048; stroke-width: 1.0;"/><text fill="#000000" font-family="sans-serif" font-size="11" lengthAdjust="spacingAndGlyphs" textLength="161" x="1606.5" y="489.5151">ArrayList&lt;Token&gt; getCode()</text><!--MD5=[adaa3654325cb0877e02ae004417f851]
class SecretCode--><rect fill="#FEFECE" filter="url(#faq43n3jpixhb)" height="99.2188" id="SecretCode" style="stroke: #A80036; stroke-width: 1.5;" width="358" x="1084" y="639.5"/><ellipse cx="1222.25" cy="655.5" fill="#ADD1B2" rx="11" ry="11" style="stroke: #A80036; stroke-width: 1.0;"/><path d="M1224.5938,651.1719 L1224.7656,651.25 C1224.9844,650.9375 1225.1875,650.8438 1225.4844,650.8438 C1225.7813,650.8438 1226.0625,650.9844 1226.2188,651.25 C1226.3125,651.4063 1226.3281,651.5313 1226.3281,651.9688 L1226.3281,653.3906 C1226.3281,653.8125 1226.2969,654 1226.1875,654.1563 C1226.0156,654.375 1225.75,654.5156 1225.4844,654.5156 C1225.2656,654.5156 1225.0313,654.4063 1224.8906,654.2656 C1224.75,654.1406 1224.7188,654.0156 1224.6563,653.6094 C1224.5625,653.2031 1224.3906,652.9844 1223.9063,652.7031 C1223.4375,652.4531 1222.8281,652.2969 1222.25,652.2969 C1220.5156,652.2969 1219.2656,653.6094 1219.2656,655.3906 L1219.2656,656.4844 C1219.2656,658.1875 1220.5625,659.2813 1222.6094,659.2813 C1223.375,659.2813 1224.0625,659.1563 1224.4844,658.8906 C1224.6719,658.7969 1224.6719,658.7969 1225.125,658.3125 C1225.3125,658.125 1225.5156,658.0469 1225.7344,658.0469 C1226.2031,658.0469 1226.5938,658.4375 1226.5938,658.8906 C1226.5938,659.2813 1226.2656,659.7344 1225.6875,660.1406 C1224.9375,660.6875 1223.7813,660.9844 1222.5625,660.9844 C1219.6719,660.9844 1217.5625,659.0938 1217.5625,656.5156 L1217.5625,655.3906 C1217.5625,652.6719 1219.5625,650.5938 1222.1875,650.5938 C1223.0625,650.5938 1223.6563,650.7344 1224.5938,651.1719 Z "/><text fill="#000000" font-family="sans-serif" font-size="12" lengthAdjust="spacingAndGlyphs" textLength="73" x="1242.75" y="659.6543">SecretCode</text><line style="stroke: #A80036; stroke-width: 1.5;" x1="1085" x2="1441" y1="671.5" y2="671.5"/><line style="stroke: #A80036; stroke-width: 1.5;" x1="1085" x2="1441" y1="679.5" y2="679.5"/><ellipse cx="1095" cy="690.5" fill="#84BE84" rx="3" ry="3" style="stroke: #038048; stroke-width: 1.0;"/><text fill="#000000" font-family="sans-serif" font-size="11" lengthAdjust="spacingAndGlyphs" textLength="198" x="1104" y="693.7104">ArrayList&lt;Token&gt; getSecretCode()</text><rect fill="#F24D5C" height="6" style="stroke: #C82930; stroke-width: 1.0;" width="6" x="1092" y="700.3047"/><text fill="#000000" font-family="sans-serif" font-size="11" lengthAdjust="spacingAndGlyphs" textLength="144" x="1104" y="706.5151">Token getTokenRandom()</text><rect fill="#F24D5C" height="6" style="stroke: #C82930; stroke-width: 1.0;" width="6" x="1092" y="713.1094"/><text fill="#000000" font-family="sans-serif" font-size="11" lengthAdjust="spacingAndGlyphs" textLength="328" x="1104" y="719.3198">boolean existToken(ArrayList&lt;Token&gt; code, Token token)</text><ellipse cx="1095" cy="728.9141" fill="#84BE84" rx="3" ry="3" style="stroke: #038048; stroke-width: 1.0;"/><text fill="#000000" font-family="sans-serif" font-size="11" lengthAdjust="spacingAndGlyphs" textLength="332" x="1104" y="732.1245">Result checkProposedCode(ProposedCode proposedCode)</text><!--MD5=[5bd74266f130b82344fcf565855b0436]
class ProposedCode--><rect fill="#FEFECE" filter="url(#faq43n3jpixhb)" height="112.0234" id="ProposedCode" style="stroke: #A80036; stroke-width: 1.5;" width="186" x="1168" y="824"/><ellipse cx="1210.9" cy="840" fill="#ADD1B2" rx="11" ry="11" style="stroke: #A80036; stroke-width: 1.0;"/><path d="M1213.2438,835.6719 L1213.4156,835.75 C1213.6344,835.4375 1213.8375,835.3438 1214.1344,835.3438 C1214.4313,835.3438 1214.7125,835.4844 1214.8688,835.75 C1214.9625,835.9063 1214.9781,836.0313 1214.9781,836.4688 L1214.9781,837.8906 C1214.9781,838.3125 1214.9469,838.5 1214.8375,838.6563 C1214.6656,838.875 1214.4,839.0156 1214.1344,839.0156 C1213.9156,839.0156 1213.6813,838.9063 1213.5406,838.7656 C1213.4,838.6406 1213.3688,838.5156 1213.3063,838.1094 C1213.2125,837.7031 1213.0406,837.4844 1212.5563,837.2031 C1212.0875,836.9531 1211.4781,836.7969 1210.9,836.7969 C1209.1656,836.7969 1207.9156,838.1094 1207.9156,839.8906 L1207.9156,840.9844 C1207.9156,842.6875 1209.2125,843.7813 1211.2594,843.7813 C1212.025,843.7813 1212.7125,843.6563 1213.1344,843.3906 C1213.3219,843.2969 1213.3219,843.2969 1213.775,842.8125 C1213.9625,842.625 1214.1656,842.5469 1214.3844,842.5469 C1214.8531,842.5469 1215.2438,842.9375 1215.2438,843.3906 C1215.2438,843.7813 1214.9156,844.2344 1214.3375,844.6406 C1213.5875,845.1875 1212.4313,845.4844 1211.2125,845.4844 C1208.3219,845.4844 1206.2125,843.5938 1206.2125,841.0156 L1206.2125,839.8906 C1206.2125,837.1719 1208.2125,835.0938 1210.8375,835.0938 C1211.7125,835.0938 1212.3063,835.2344 1213.2438,835.6719 Z "/><text fill="#000000" font-family="sans-serif" font-size="12" lengthAdjust="spacingAndGlyphs" textLength="92" x="1231.1" y="844.1543">ProposedCode</text><line style="stroke: #A80036; stroke-width: 1.5;" x1="1169" x2="1353" y1="856" y2="856"/><rect fill="none" height="6" style="stroke: #C82930; stroke-width: 1.0;" width="6" x="1176" y="864"/><text fill="#000000" font-family="sans-serif" font-size="11" lengthAdjust="spacingAndGlyphs" textLength="72" x="1188" y="870.2104">Result result</text><line style="stroke: #A80036; stroke-width: 1.5;" x1="1169" x2="1353" y1="876.8047" y2="876.8047"/><ellipse cx="1179" cy="887.8047" fill="#84BE84" rx="3" ry="3" style="stroke: #038048; stroke-width: 1.0;"/><text fill="#000000" font-family="sans-serif" font-size="11" lengthAdjust="spacingAndGlyphs" textLength="129" x="1188" y="891.0151">boolean codeIsEmpty()</text><ellipse cx="1179" cy="900.6094" fill="#84BE84" rx="3" ry="3" style="stroke: #038048; stroke-width: 1.0;"/><text fill="#000000" font-family="sans-serif" font-size="11" lengthAdjust="spacingAndGlyphs" textLength="105" x="1188" y="903.8198">boolean isWinner()</text><ellipse cx="1179" cy="913.4141" fill="#84BE84" rx="3" ry="3" style="stroke: #038048; stroke-width: 1.0;"/><text fill="#000000" font-family="sans-serif" font-size="11" lengthAdjust="spacingAndGlyphs" textLength="100" x="1188" y="916.6245">Result getResult()</text><ellipse cx="1179" cy="926.2188" fill="#84BE84" rx="3" ry="3" style="stroke: #038048; stroke-width: 1.0;"/><text fill="#000000" font-family="sans-serif" font-size="11" lengthAdjust="spacingAndGlyphs" textLength="160" x="1188" y="929.4292">void setResult(Result result)</text><!--MD5=[2741598bdf59a7d7e0d5c97658fd3022]
class Result--><rect fill="#FEFECE" filter="url(#faq43n3jpixhb)" height="112.0234" id="Result" style="stroke: #A80036; stroke-width: 1.5;" width="131" x="1420.5" y="403.5"/><ellipse cx="1462.5" cy="419.5" fill="#ADD1B2" rx="11" ry="11" style="stroke: #A80036; stroke-width: 1.0;"/><path d="M1464.8438,415.1719 L1465.0156,415.25 C1465.2344,414.9375 1465.4375,414.8438 1465.7344,414.8438 C1466.0313,414.8438 1466.3125,414.9844 1466.4688,415.25 C1466.5625,415.4063 1466.5781,415.5313 1466.5781,415.9688 L1466.5781,417.3906 C1466.5781,417.8125 1466.5469,418 1466.4375,418.1563 C1466.2656,418.375 1466,418.5156 1465.7344,418.5156 C1465.5156,418.5156 1465.2813,418.4063 1465.1406,418.2656 C1465,418.1406 1464.9688,418.0156 1464.9063,417.6094 C1464.8125,417.2031 1464.6406,416.9844 1464.1563,416.7031 C1463.6875,416.4531 1463.0781,416.2969 1462.5,416.2969 C1460.7656,416.2969 1459.5156,417.6094 1459.5156,419.3906 L1459.5156,420.4844 C1459.5156,422.1875 1460.8125,423.2813 1462.8594,423.2813 C1463.625,423.2813 1464.3125,423.1563 1464.7344,422.8906 C1464.9219,422.7969 1464.9219,422.7969 1465.375,422.3125 C1465.5625,422.125 1465.7656,422.0469 1465.9844,422.0469 C1466.4531,422.0469 1466.8438,422.4375 1466.8438,422.8906 C1466.8438,423.2813 1466.5156,423.7344 1465.9375,424.1406 C1465.1875,424.6875 1464.0313,424.9844 1462.8125,424.9844 C1459.9219,424.9844 1457.8125,423.0938 1457.8125,420.5156 L1457.8125,419.3906 C1457.8125,416.6719 1459.8125,414.5938 1462.4375,414.5938 C1463.3125,414.5938 1463.9063,414.7344 1464.8438,415.1719 Z "/><text fill="#000000" font-family="sans-serif" font-size="12" lengthAdjust="spacingAndGlyphs" textLength="39" x="1482.5" y="423.6543">Result</text><line style="stroke: #A80036; stroke-width: 1.5;" x1="1421.5" x2="1550.5" y1="435.5" y2="435.5"/><rect fill="none" height="6" style="stroke: #C82930; stroke-width: 1.0;" width="6" x="1428.5" y="443.5"/><text fill="#000000" font-family="sans-serif" font-size="11" lengthAdjust="spacingAndGlyphs" textLength="53" x="1440.5" y="449.7104">int deads</text><rect fill="none" height="6" style="stroke: #C82930; stroke-width: 1.0;" width="6" x="1428.5" y="456.3047"/><text fill="#000000" font-family="sans-serif" font-size="11" lengthAdjust="spacingAndGlyphs" textLength="76" x="1440.5" y="462.5151">int woundeds</text><line style="stroke: #A80036; stroke-width: 1.5;" x1="1421.5" x2="1550.5" y1="469.1094" y2="469.1094"/><ellipse cx="1431.5" cy="480.1094" fill="#84BE84" rx="3" ry="3" style="stroke: #038048; stroke-width: 1.0;"/><text fill="#000000" font-family="sans-serif" font-size="11" lengthAdjust="spacingAndGlyphs" textLength="105" x="1440.5" y="483.3198">boolean isWinner()</text><ellipse cx="1431.5" cy="492.9141" fill="#84BE84" rx="3" ry="3" style="stroke: #038048; stroke-width: 1.0;"/><text fill="#000000" font-family="sans-serif" font-size="11" lengthAdjust="spacingAndGlyphs" textLength="80" x="1440.5" y="496.1245">int getDeads()</text><ellipse cx="1431.5" cy="505.7188" fill="#84BE84" rx="3" ry="3" style="stroke: #038048; stroke-width: 1.0;"/><text fill="#000000" font-family="sans-serif" font-size="11" lengthAdjust="spacingAndGlyphs" textLength="102" x="1440.5" y="508.9292">int getWoundeds()</text><!--MD5=[153973e0405221f6a20dc6ad197c532d]
class MasterMind--><rect fill="#FEFECE" filter="url(#faq43n3jpixhb)" height="99.2188" id="MasterMind" style="stroke: #A80036; stroke-width: 1.5;" width="161" x="419.5" y="8"/><ellipse cx="460.15" cy="24" fill="#ADD1B2" rx="11" ry="11" style="stroke: #A80036; stroke-width: 1.0;"/><path d="M462.4938,19.6719 L462.6656,19.75 C462.8844,19.4375 463.0875,19.3438 463.3844,19.3438 C463.6813,19.3438 463.9625,19.4844 464.1188,19.75 C464.2125,19.9063 464.2281,20.0313 464.2281,20.4688 L464.2281,21.8906 C464.2281,22.3125 464.1969,22.5 464.0875,22.6563 C463.9156,22.875 463.65,23.0156 463.3844,23.0156 C463.1656,23.0156 462.9313,22.9063 462.7906,22.7656 C462.65,22.6406 462.6188,22.5156 462.5563,22.1094 C462.4625,21.7031 462.2906,21.4844 461.8063,21.2031 C461.3375,20.9531 460.7281,20.7969 460.15,20.7969 C458.4156,20.7969 457.1656,22.1094 457.1656,23.8906 L457.1656,24.9844 C457.1656,26.6875 458.4625,27.7813 460.5094,27.7813 C461.275,27.7813 461.9625,27.6563 462.3844,27.3906 C462.5719,27.2969 462.5719,27.2969 463.025,26.8125 C463.2125,26.625 463.4156,26.5469 463.6344,26.5469 C464.1031,26.5469 464.4938,26.9375 464.4938,27.3906 C464.4938,27.7813 464.1656,28.2344 463.5875,28.6406 C462.8375,29.1875 461.6813,29.4844 460.4625,29.4844 C457.5719,29.4844 455.4625,27.5938 455.4625,25.0156 L455.4625,23.8906 C455.4625,21.1719 457.4625,19.0938 460.0875,19.0938 C460.9625,19.0938 461.5563,19.2344 462.4938,19.6719 Z "/><text fill="#000000" font-family="sans-serif" font-size="12" lengthAdjust="spacingAndGlyphs" textLength="72" x="479.85" y="28.1543">MasterMind</text><line style="stroke: #A80036; stroke-width: 1.5;" x1="420.5" x2="579.5" y1="40" y2="40"/><rect fill="none" height="6" style="stroke: #C82930; stroke-width: 1.0;" width="6" x="427.5" y="48"/><text fill="#000000" font-family="sans-serif" font-size="11" lengthAdjust="spacingAndGlyphs" textLength="59" x="439.5" y="54.2104">Logic logic</text><rect fill="none" height="6" style="stroke: #C82930; stroke-width: 1.0;" width="6" x="427.5" y="60.8047"/><text fill="#000000" font-family="sans-serif" font-size="11" lengthAdjust="spacingAndGlyphs" textLength="122" x="439.5" y="67.0151">GameView gameView</text><line style="stroke: #A80036; stroke-width: 1.5;" x1="420.5" x2="579.5" y1="73.6094" y2="73.6094"/><ellipse cx="430.5" cy="84.6094" fill="#84BE84" rx="3" ry="3" style="stroke: #038048; stroke-width: 1.0;"/><text fill="#000000" font-family="sans-serif" font-size="11" lengthAdjust="spacingAndGlyphs" textLength="135" x="439.5" y="87.8198">public static void main()</text><rect fill="#F24D5C" height="6" style="stroke: #C82930; stroke-width: 1.0;" width="6" x="427.5" y="94.4141"/><text fill="#000000" font-family="sans-serif" font-size="11" lengthAdjust="spacingAndGlyphs" textLength="58" x="439.5" y="100.6245">void play()</text><!--MD5=[b6dcce5e5ef3c84b0b048d11301373dd]
class Game--><rect fill="#FEFECE" filter="url(#faq43n3jpixhb)" height="188.8516" id="Game" style="stroke: #A80036; stroke-width: 1.5;" width="363" x="1022.5" y="365"/><ellipse cx="1181.75" cy="381" fill="#ADD1B2" rx="11" ry="11" style="stroke: #A80036; stroke-width: 1.0;"/><path d="M1184.0938,376.6719 L1184.2656,376.75 C1184.4844,376.4375 1184.6875,376.3438 1184.9844,376.3438 C1185.2813,376.3438 1185.5625,376.4844 1185.7188,376.75 C1185.8125,376.9063 1185.8281,377.0313 1185.8281,377.4688 L1185.8281,378.8906 C1185.8281,379.3125 1185.7969,379.5 1185.6875,379.6563 C1185.5156,379.875 1185.25,380.0156 1184.9844,380.0156 C1184.7656,380.0156 1184.5313,379.9063 1184.3906,379.7656 C1184.25,379.6406 1184.2188,379.5156 1184.1563,379.1094 C1184.0625,378.7031 1183.8906,378.4844 1183.4063,378.2031 C1182.9375,377.9531 1182.3281,377.7969 1181.75,377.7969 C1180.0156,377.7969 1178.7656,379.1094 1178.7656,380.8906 L1178.7656,381.9844 C1178.7656,383.6875 1180.0625,384.7813 1182.1094,384.7813 C1182.875,384.7813 1183.5625,384.6563 1183.9844,384.3906 C1184.1719,384.2969 1184.1719,384.2969 1184.625,383.8125 C1184.8125,383.625 1185.0156,383.5469 1185.2344,383.5469 C1185.7031,383.5469 1186.0938,383.9375 1186.0938,384.3906 C1186.0938,384.7813 1185.7656,385.2344 1185.1875,385.6406 C1184.4375,386.1875 1183.2813,386.4844 1182.0625,386.4844 C1179.1719,386.4844 1177.0625,384.5938 1177.0625,382.0156 L1177.0625,380.8906 C1177.0625,378.1719 1179.0625,376.0938 1181.6875,376.0938 C1182.5625,376.0938 1183.1563,376.2344 1184.0938,376.6719 Z "/><text fill="#000000" font-family="sans-serif" font-size="12" lengthAdjust="spacingAndGlyphs" textLength="36" x="1202.25" y="385.1543">Game</text><line style="stroke: #A80036; stroke-width: 1.5;" x1="1023.5" x2="1384.5" y1="397" y2="397"/><rect fill="none" height="6" style="stroke: #C82930; stroke-width: 1.0;" width="6" x="1030.5" y="405"/><text fill="#000000" font-family="sans-serif" font-size="11" lengthAdjust="spacingAndGlyphs" textLength="69" x="1042.5" y="411.2104">int attempts</text><rect fill="none" height="6" style="stroke: #C82930; stroke-width: 1.0;" width="6" x="1030.5" y="417.8047"/><text fill="#000000" font-family="sans-serif" font-size="11" lengthAdjust="spacingAndGlyphs" textLength="135" x="1042.5" y="424.0151">SecretCode secretCode</text><line style="stroke: #A80036; stroke-width: 1.5;" x1="1023.5" x2="1384.5" y1="430.6094" y2="430.6094"/><rect fill="#F24D5C" height="6" style="stroke: #C82930; stroke-width: 1.0;" width="6" x="1030.5" y="438.6094"/><text fill="#000000" font-family="sans-serif" font-size="11" lengthAdjust="spacingAndGlyphs" textLength="80" x="1042.5" y="444.8198">void initialize()</text><ellipse cx="1033.5" cy="454.4141" fill="#84BE84" rx="3" ry="3" style="stroke: #038048; stroke-width: 1.0;"/><text fill="#000000" font-family="sans-serif" font-size="11" lengthAdjust="spacingAndGlyphs" textLength="330" x="1042.5" y="457.6245">boolean createProposedCode(String stringProposedCode)</text><rect fill="#F24D5C" height="6" style="stroke: #C82930; stroke-width: 1.0;" width="6" x="1030.5" y="464.2188"/><text fill="#000000" font-family="sans-serif" font-size="11" lengthAdjust="spacingAndGlyphs" textLength="337" x="1042.5" y="470.4292">boolean saveProposedCode(ProposedCode proposedCode)</text><rect fill="#F24D5C" height="6" style="stroke: #C82930; stroke-width: 1.0;" width="6" x="1030.5" y="477.0234"/><text fill="#000000" font-family="sans-serif" font-size="11" lengthAdjust="spacingAndGlyphs" textLength="251" x="1042.5" y="483.2339">ProposedCode removetLastProposedCOde()</text><ellipse cx="1033.5" cy="492.8281" fill="#84BE84" rx="3" ry="3" style="stroke: #038048; stroke-width: 1.0;"/><text fill="#000000" font-family="sans-serif" font-size="11" lengthAdjust="spacingAndGlyphs" textLength="96" x="1042.5" y="496.0386">void addAtempt()</text><ellipse cx="1033.5" cy="505.6328" fill="#84BE84" rx="3" ry="3" style="stroke: #038048; stroke-width: 1.0;"/><text fill="#000000" font-family="sans-serif" font-size="11" lengthAdjust="spacingAndGlyphs" textLength="105" x="1042.5" y="508.8433">boolean isWinner()</text><ellipse cx="1033.5" cy="518.4375" fill="#84BE84" rx="3" ry="3" style="stroke: #038048; stroke-width: 1.0;"/><text fill="#000000" font-family="sans-serif" font-size="11" lengthAdjust="spacingAndGlyphs" textLength="184" x="1042.5" y="521.6479">boolean anyAttemptsRemained()</text><ellipse cx="1033.5" cy="531.2422" fill="#84BE84" rx="3" ry="3" style="stroke: #038048; stroke-width: 1.0;"/><text fill="#000000" font-family="sans-serif" font-size="11" lengthAdjust="spacingAndGlyphs" textLength="95" x="1042.5" y="534.4526">int getAttempts()</text><ellipse cx="1033.5" cy="544.0469" fill="#84BE84" rx="3" ry="3" style="stroke: #038048; stroke-width: 1.0;"/><text fill="#000000" font-family="sans-serif" font-size="11" lengthAdjust="spacingAndGlyphs" textLength="278" x="1042.5" y="547.2573">ArrayList&lt;ProposedCodes&gt; getProposedCodes()</text><!--MD5=[51d729737bd84a4c43136dd336c2eea1]
class ConsoleView--><rect fill="#FEFECE" filter="url(#faq43n3jpixhb)" height="150.4375" id="ConsoleView" style="stroke: #A80036; stroke-width: 1.5;" width="294" x="613" y="614"/><ellipse cx="716.75" cy="630" fill="#ADD1B2" rx="11" ry="11" style="stroke: #A80036; stroke-width: 1.0;"/><path d="M719.0938,625.6719 L719.2656,625.75 C719.4844,625.4375 719.6875,625.3438 719.9844,625.3438 C720.2813,625.3438 720.5625,625.4844 720.7188,625.75 C720.8125,625.9063 720.8281,626.0313 720.8281,626.4688 L720.8281,627.8906 C720.8281,628.3125 720.7969,628.5 720.6875,628.6563 C720.5156,628.875 720.25,629.0156 719.9844,629.0156 C719.7656,629.0156 719.5313,628.9063 719.3906,628.7656 C719.25,628.6406 719.2188,628.5156 719.1563,628.1094 C719.0625,627.7031 718.8906,627.4844 718.4063,627.2031 C717.9375,626.9531 717.3281,626.7969 716.75,626.7969 C715.0156,626.7969 713.7656,628.1094 713.7656,629.8906 L713.7656,630.9844 C713.7656,632.6875 715.0625,633.7813 717.1094,633.7813 C717.875,633.7813 718.5625,633.6563 718.9844,633.3906 C719.1719,633.2969 719.1719,633.2969 719.625,632.8125 C719.8125,632.625 720.0156,632.5469 720.2344,632.5469 C720.7031,632.5469 721.0938,632.9375 721.0938,633.3906 C721.0938,633.7813 720.7656,634.2344 720.1875,634.6406 C719.4375,635.1875 718.2813,635.4844 717.0625,635.4844 C714.1719,635.4844 712.0625,633.5938 712.0625,631.0156 L712.0625,629.8906 C712.0625,627.1719 714.0625,625.0938 716.6875,625.0938 C717.5625,625.0938 718.1563,625.2344 719.0938,625.6719 Z "/><text fill="#000000" font-family="sans-serif" font-size="12" lengthAdjust="spacingAndGlyphs" textLength="78" x="737.25" y="634.1543">ConsoleView</text><line style="stroke: #A80036; stroke-width: 1.5;" x1="614" x2="906" y1="646" y2="646"/><rect fill="none" height="6" style="stroke: #C82930; stroke-width: 1.0;" width="6" x="621" y="654"/><text fill="#000000" font-family="sans-serif" font-size="11" lengthAdjust="spacingAndGlyphs" textLength="114" x="633" y="660.2104">Controller controller</text><rect fill="none" height="6" style="stroke: #C82930; stroke-width: 1.0;" width="6" x="621" y="666.8047"/><text fill="#000000" font-family="sans-serif" font-size="11" lengthAdjust="spacingAndGlyphs" textLength="230" x="633" y="673.0151">ProposedCodeState proposedCodeState</text><rect fill="none" height="6" style="stroke: #C82930; stroke-width: 1.0;" width="6" x="621" y="679.6094"/><text fill="#000000" font-family="sans-serif" font-size="11" lengthAdjust="spacingAndGlyphs" textLength="187" x="633" y="685.8198">SecretCodeView secretCodeView</text><line style="stroke: #A80036; stroke-width: 1.5;" x1="614" x2="906" y1="692.4141" y2="692.4141"/><ellipse cx="624" cy="703.4141" fill="#84BE84" rx="3" ry="3" style="stroke: #038048; stroke-width: 1.0;"/><text fill="#000000" font-family="sans-serif" font-size="11" lengthAdjust="spacingAndGlyphs" textLength="229" x="633" y="706.6245">void visit(StartController startController)</text><ellipse cx="624" cy="716.2188" fill="#84BE84" rx="3" ry="3" style="stroke: #038048; stroke-width: 1.0;"/><text fill="#000000" font-family="sans-serif" font-size="11" lengthAdjust="spacingAndGlyphs" textLength="264" x="633" y="719.4292">void visit(ResumeController resumeController)</text><ellipse cx="624" cy="729.0234" fill="#84BE84" rx="3" ry="3" style="stroke: #038048; stroke-width: 1.0;"/><text fill="#000000" font-family="sans-serif" font-size="11" lengthAdjust="spacingAndGlyphs" textLength="268" x="633" y="732.2339">void visit(ProposeController proposeController)</text><rect fill="#F24D5C" height="6" style="stroke: #C82930; stroke-width: 1.0;" width="6" x="621" y="738.8281"/><text fill="#000000" font-family="sans-serif" font-size="11" lengthAdjust="spacingAndGlyphs" textLength="181" x="633" y="745.0386">void printProposedCodesArray()</text><rect fill="#F24D5C" height="6" style="stroke: #C82930; stroke-width: 1.0;" width="6" x="621" y="751.6328"/><text fill="#000000" font-family="sans-serif" font-size="11" lengthAdjust="spacingAndGlyphs" textLength="145" x="633" y="757.8433">void printProposedState()</text><!--MD5=[c045e12321b83266d36d22b9096c24ea]
class View--><rect fill="#FEFECE" filter="url(#faq43n3jpixhb)" height="86.4141" id="View" style="stroke: #A80036; stroke-width: 1.5;" width="345" x="570.5" y="416.5"/><ellipse cx="724.25" cy="432.5" fill="#A9DCDF" rx="11" ry="11" style="stroke: #A80036; stroke-width: 1.0;"/><path d="M725.8281,434.3125 L721.7813,434.3125 L721.3906,435.2969 L721.7813,435.2969 C722.2344,435.2969 722.375,435.3281 722.5469,435.4531 C722.7656,435.625 722.8906,435.875 722.8906,436.1563 C722.8906,436.4375 722.75,436.7344 722.4844,436.875 C722.3594,436.9688 722.1406,437 721.7813,437 L719.5156,437 C718.7656,437 718.3906,436.7188 718.3906,436.1563 C718.3906,435.8594 718.5469,435.5781 718.7969,435.4219 C718.9531,435.3125 719.1094,435.2969 719.5313,435.2969 L722.1719,428.7813 L721.0938,428.7813 C720.6563,428.7813 720.4844,428.75 720.3125,428.6406 C720.0938,428.4688 719.9531,428.2188 719.9531,427.9375 C719.9531,427.6563 720.1094,427.375 720.3594,427.2031 C720.5156,427.1094 720.6406,427.0938 721.0938,427.0938 L724.7656,427.0938 L728.1563,435.2969 C728.625,435.2969 728.7813,435.3281 728.9531,435.4688 C729.1719,435.625 729.3125,435.875 729.3125,436.1563 C729.3125,436.4375 729.1563,436.7344 728.9063,436.875 C728.7656,436.9688 728.5469,437 728.1875,437 L725.8281,437 C725.4063,437 725.2031,436.9531 725.0625,436.8281 C724.8438,436.6719 724.7031,436.4219 724.7031,436.1563 C724.7031,435.8594 724.8594,435.5781 725.1094,435.4219 C725.2656,435.3125 725.375,435.2969 725.8281,435.2969 L726.2188,435.2969 Z M725.125,432.6094 L723.7969,429.3438 L722.4531,432.6094 Z "/><text fill="#000000" font-family="sans-serif" font-size="12" font-style="italic" lengthAdjust="spacingAndGlyphs" textLength="29" x="744.75" y="436.6543">View</text><line style="stroke: #A80036; stroke-width: 1.5;" x1="571.5" x2="914.5" y1="448.5" y2="448.5"/><line style="stroke: #A80036; stroke-width: 1.5;" x1="571.5" x2="914.5" y1="456.5" y2="456.5"/><ellipse cx="581.5" cy="467.5" fill="#84BE84" rx="3" ry="3" style="stroke: #038048; stroke-width: 1.0;"/><text fill="#000000" font-family="sans-serif" font-size="11" lengthAdjust="spacingAndGlyphs" textLength="280" x="590.5" y="470.7104">abstract void visit(StartController startController)</text><ellipse cx="581.5" cy="480.3047" fill="#84BE84" rx="3" ry="3" style="stroke: #038048; stroke-width: 1.0;"/><text fill="#000000" font-family="sans-serif" font-size="11" lengthAdjust="spacingAndGlyphs" textLength="315" x="590.5" y="483.5151">abstract void visit(ResumeController resumeController)</text><ellipse cx="581.5" cy="493.1094" fill="#84BE84" rx="3" ry="3" style="stroke: #038048; stroke-width: 1.0;"/><text fill="#000000" font-family="sans-serif" font-size="11" lengthAdjust="spacingAndGlyphs" textLength="319" x="590.5" y="496.3198">abstract void visit(ProposeController proposeController)</text><!--MD5=[b949b925716db3aff1762203a045b95d]
class SecretCodeView--><rect fill="#FEFECE" filter="url(#faq43n3jpixhb)" height="60.8047" id="SecretCodeView" style="stroke: #A80036; stroke-width: 1.5;" width="133" x="998.5" y="849.5"/><ellipse cx="1013.5" cy="865.5" fill="#ADD1B2" rx="11" ry="11" style="stroke: #A80036; stroke-width: 1.0;"/><path d="M1015.8438,861.1719 L1016.0156,861.25 C1016.2344,860.9375 1016.4375,860.8438 1016.7344,860.8438 C1017.0313,860.8438 1017.3125,860.9844 1017.4688,861.25 C1017.5625,861.4063 1017.5781,861.5313 1017.5781,861.9688 L1017.5781,863.3906 C1017.5781,863.8125 1017.5469,864 1017.4375,864.1563 C1017.2656,864.375 1017,864.5156 1016.7344,864.5156 C1016.5156,864.5156 1016.2813,864.4063 1016.1406,864.2656 C1016,864.1406 1015.9688,864.0156 1015.9063,863.6094 C1015.8125,863.2031 1015.6406,862.9844 1015.1563,862.7031 C1014.6875,862.4531 1014.0781,862.2969 1013.5,862.2969 C1011.7656,862.2969 1010.5156,863.6094 1010.5156,865.3906 L1010.5156,866.4844 C1010.5156,868.1875 1011.8125,869.2813 1013.8594,869.2813 C1014.625,869.2813 1015.3125,869.1563 1015.7344,868.8906 C1015.9219,868.7969 1015.9219,868.7969 1016.375,868.3125 C1016.5625,868.125 1016.7656,868.0469 1016.9844,868.0469 C1017.4531,868.0469 1017.8438,868.4375 1017.8438,868.8906 C1017.8438,869.2813 1017.5156,869.7344 1016.9375,870.1406 C1016.1875,870.6875 1015.0313,870.9844 1013.8125,870.9844 C1010.9219,870.9844 1008.8125,869.0938 1008.8125,866.5156 L1008.8125,865.3906 C1008.8125,862.6719 1010.8125,860.5938 1013.4375,860.5938 C1014.3125,860.5938 1014.9063,860.7344 1015.8438,861.1719 Z "/><text fill="#000000" font-family="sans-serif" font-size="12" lengthAdjust="spacingAndGlyphs" textLength="101" x="1027.5" y="869.6543">SecretCodeView</text><line style="stroke: #A80036; stroke-width: 1.5;" x1="999.5" x2="1130.5" y1="881.5" y2="881.5"/><line style="stroke: #A80036; stroke-width: 1.5;" x1="999.5" x2="1130.5" y1="889.5" y2="889.5"/><ellipse cx="1009.5" cy="900.5" fill="#84BE84" rx="3" ry="3" style="stroke: #038048; stroke-width: 1.0;"/><text fill="#000000" font-family="sans-serif" font-size="11" lengthAdjust="spacingAndGlyphs" textLength="61" x="1018.5" y="903.7104">void print()</text><!--MD5=[210857e4d65c42f303e0bf69dfef6d70]
class ProposedCodeView--><rect fill="#FEFECE" filter="url(#faq43n3jpixhb)" height="60.8047" id="ProposedCodeView" style="stroke: #A80036; stroke-width: 1.5;" width="152" x="956" y="996"/><ellipse cx="971" cy="1012" fill="#ADD1B2" rx="11" ry="11" style="stroke: #A80036; stroke-width: 1.0;"/><path d="M973.3438,1007.6719 L973.5156,1007.75 C973.7344,1007.4375 973.9375,1007.3438 974.2344,1007.3438 C974.5313,1007.3438 974.8125,1007.4844 974.9688,1007.75 C975.0625,1007.9063 975.0781,1008.0313 975.0781,1008.4688 L975.0781,1009.8906 C975.0781,1010.3125 975.0469,1010.5 974.9375,1010.6563 C974.7656,1010.875 974.5,1011.0156 974.2344,1011.0156 C974.0156,1011.0156 973.7813,1010.9063 973.6406,1010.7656 C973.5,1010.6406 973.4688,1010.5156 973.4063,1010.1094 C973.3125,1009.7031 973.1406,1009.4844 972.6563,1009.2031 C972.1875,1008.9531 971.5781,1008.7969 971,1008.7969 C969.2656,1008.7969 968.0156,1010.1094 968.0156,1011.8906 L968.0156,1012.9844 C968.0156,1014.6875 969.3125,1015.7813 971.3594,1015.7813 C972.125,1015.7813 972.8125,1015.6563 973.2344,1015.3906 C973.4219,1015.2969 973.4219,1015.2969 973.875,1014.8125 C974.0625,1014.625 974.2656,1014.5469 974.4844,1014.5469 C974.9531,1014.5469 975.3438,1014.9375 975.3438,1015.3906 C975.3438,1015.7813 975.0156,1016.2344 974.4375,1016.6406 C973.6875,1017.1875 972.5313,1017.4844 971.3125,1017.4844 C968.4219,1017.4844 966.3125,1015.5938 966.3125,1013.0156 L966.3125,1011.8906 C966.3125,1009.1719 968.3125,1007.0938 970.9375,1007.0938 C971.8125,1007.0938 972.4063,1007.2344 973.3438,1007.6719 Z "/><text fill="#000000" font-family="sans-serif" font-size="12" lengthAdjust="spacingAndGlyphs" textLength="120" x="985" y="1016.1543">ProposedCodeView</text><line style="stroke: #A80036; stroke-width: 1.5;" x1="957" x2="1107" y1="1028" y2="1028"/><line style="stroke: #A80036; stroke-width: 1.5;" x1="957" x2="1107" y1="1036" y2="1036"/><ellipse cx="967" cy="1047" fill="#84BE84" rx="3" ry="3" style="stroke: #038048; stroke-width: 1.0;"/><text fill="#000000" font-family="sans-serif" font-size="11" lengthAdjust="spacingAndGlyphs" textLength="61" x="976" y="1050.2104">void print()</text><!--MD5=[a40873b740e53ca026148d30ccb3c321]
class ResultView--><rect fill="#FEFECE" filter="url(#faq43n3jpixhb)" height="60.8047" id="ResultView" style="stroke: #A80036; stroke-width: 1.5;" width="99" x="861.5" y="849.5"/><ellipse cx="876.5" cy="865.5" fill="#ADD1B2" rx="11" ry="11" style="stroke: #A80036; stroke-width: 1.0;"/><path d="M878.8438,861.1719 L879.0156,861.25 C879.2344,860.9375 879.4375,860.8438 879.7344,860.8438 C880.0313,860.8438 880.3125,860.9844 880.4688,861.25 C880.5625,861.4063 880.5781,861.5313 880.5781,861.9688 L880.5781,863.3906 C880.5781,863.8125 880.5469,864 880.4375,864.1563 C880.2656,864.375 880,864.5156 879.7344,864.5156 C879.5156,864.5156 879.2813,864.4063 879.1406,864.2656 C879,864.1406 878.9688,864.0156 878.9063,863.6094 C878.8125,863.2031 878.6406,862.9844 878.1563,862.7031 C877.6875,862.4531 877.0781,862.2969 876.5,862.2969 C874.7656,862.2969 873.5156,863.6094 873.5156,865.3906 L873.5156,866.4844 C873.5156,868.1875 874.8125,869.2813 876.8594,869.2813 C877.625,869.2813 878.3125,869.1563 878.7344,868.8906 C878.9219,868.7969 878.9219,868.7969 879.375,868.3125 C879.5625,868.125 879.7656,868.0469 879.9844,868.0469 C880.4531,868.0469 880.8438,868.4375 880.8438,868.8906 C880.8438,869.2813 880.5156,869.7344 879.9375,870.1406 C879.1875,870.6875 878.0313,870.9844 876.8125,870.9844 C873.9219,870.9844 871.8125,869.0938 871.8125,866.5156 L871.8125,865.3906 C871.8125,862.6719 873.8125,860.5938 876.4375,860.5938 C877.3125,860.5938 877.9063,860.7344 878.8438,861.1719 Z "/><text fill="#000000" font-family="sans-serif" font-size="12" lengthAdjust="spacingAndGlyphs" textLength="67" x="890.5" y="869.6543">ResultView</text><line style="stroke: #A80036; stroke-width: 1.5;" x1="862.5" x2="959.5" y1="881.5" y2="881.5"/><line style="stroke: #A80036; stroke-width: 1.5;" x1="862.5" x2="959.5" y1="889.5" y2="889.5"/><ellipse cx="872.5" cy="900.5" fill="#84BE84" rx="3" ry="3" style="stroke: #038048; stroke-width: 1.0;"/><text fill="#000000" font-family="sans-serif" font-size="11" lengthAdjust="spacingAndGlyphs" textLength="61" x="881.5" y="903.7104">void print()</text><!--MD5=[a63dd7f30baaeb88fc8dd2ca46e0cc37]
reverse link View to ConsoleView--><path d="M747.673,523.038 C749.77,551.098 752.259,584.412 754.45,613.732 " fill="none" id="View&lt;-ConsoleView" style="stroke: #A80036; stroke-width: 1.0;"/><polygon fill="none" points="740.668,523.224,746.158,502.758,754.629,522.181,740.668,523.224" style="stroke: #A80036; stroke-width: 1.0;"/><!--MD5=[fec5adeab012026b930e0bf0f2d4909d]
link ConsoleView to ProposeController--><path d="M612.787,738.304 C534.681,763.933 438.251,795.574 356.632,822.355 " fill="none" id="ConsoleView-&gt;ProposeController" style="stroke: #A80036; stroke-width: 1.0; stroke-dasharray: 7.0,7.0;"/><polygon fill="#A80036" points="351.772,823.95,361.5707,824.943,356.5225,822.3903,359.0752,817.3421,351.772,823.95" style="stroke: #A80036; stroke-width: 1.0;"/><!--MD5=[dbdcaab34fb81d463c2fea3758e8e729]
link ConsoleView to StartController--><path d="M721.549,764.155 C708.433,789.451 694.258,816.789 683.029,838.444 " fill="none" id="ConsoleView-&gt;StartController" style="stroke: #A80036; stroke-width: 1.0; stroke-dasharray: 7.0,7.0;"/><polygon fill="#A80036" points="680.679,842.976,688.3728,836.8274,682.9805,838.5372,681.2707,833.1449,680.679,842.976" style="stroke: #A80036; stroke-width: 1.0;"/><!--MD5=[dc58898686e75d9ef652d104d9f3fb92]
link ConsoleView to ResumeController--><path d="M647.786,764.155 C608.547,790.086 566.061,818.163 532.919,840.064 " fill="none" id="ConsoleView-&gt;ResumeController" style="stroke: #A80036; stroke-width: 1.0; stroke-dasharray: 7.0,7.0;"/><polygon fill="#A80036" points="528.512,842.976,538.2258,841.3504,532.6832,840.219,533.8146,834.6764,528.512,842.976" style="stroke: #A80036; stroke-width: 1.0;"/><!--MD5=[213a4c26dce903a5a958e3501f0a9e7a]
link ProposeController to ProposedCodeState--><path d="M353.124,936.041 C421.873,958.416 497.806,983.1283 552.411,1000.8995 " fill="none" id="ProposeController-&gt;ProposedCodeState" style="stroke: #A80036; stroke-width: 1.0;"/><polygon fill="#A80036" points="557.296,1002.4894,549.9754,995.9008,552.5414,1000.9422,547.5,1003.5082,557.296,1002.4894" style="stroke: #A80036; stroke-width: 1.0;"/><!--MD5=[07f6bd8dd039ff78155041a44cc45bd1]
link ProposedCode to ProposedCodeState--><path d="M1167.71,929.228 C1161.45,931.708 1155.18,933.997 1149,936 C999.605,984.3999 817.158,1008.0838 712.588,1018.4689 " fill="none" id="ProposedCode-&gt;ProposedCodeState" style="stroke: #A80036; stroke-width: 1.0;"/><polygon fill="#A80036" points="707.359,1018.9835,716.7077,1022.0823,712.3349,1018.4935,715.9237,1014.1208,707.359,1018.9835" style="stroke: #A80036; stroke-width: 1.0;"/><!--MD5=[4cdf142e31a76e0668eb535354f83ee8]
reverse link StateManager to State--><path d="M829.853,61.518 C1015.16,69.295 1442.45,94.742 1566,167 C1583.71,177.355 1597.22,196.513 1605.87,211.861 " fill="none" id="StateManager&lt;-State" style="stroke: #A80036; stroke-width: 1.0;"/><polygon fill="#A80036" points="816.671,60.978,822.5021,65.2205,828.6609,61.4697,822.8299,57.2272,816.671,60.978" style="stroke: #A80036; stroke-width: 1.0;"/><!--MD5=[f92f20b69025c2ad68ed7511c4cba574]
link Logic to StartController--><path d="M442.497,298.632 C439.39,401.746 445.009,612.792 529,764 C545.813,794.269 573.839,820.292 599.84,839.889 " fill="none" id="Logic-&gt;StartController" style="stroke: #A80036; stroke-width: 1.0; stroke-dasharray: 7.0,7.0;"/><polygon fill="#A80036" points="603.993,842.979,599.1582,834.3985,599.9809,839.9953,594.3842,840.818,603.993,842.979" style="stroke: #A80036; stroke-width: 1.0;"/><!--MD5=[734149cd16ef4c869ce8f3788b7e45a6]
link Logic to ProposeController--><path d="M352.958,298.722 C330.671,317.57 309.01,340.009 294,365 C206.209,511.171 187.972,717.782 184.525,818.74 " fill="none" id="Logic-&gt;ProposeController" style="stroke: #A80036; stroke-width: 1.0; stroke-dasharray: 7.0,7.0;"/><polygon fill="#A80036" points="184.363,823.762,188.6514,814.8958,184.5244,818.7646,180.6556,814.6376,184.363,823.762" style="stroke: #A80036; stroke-width: 1.0;"/><!--MD5=[b7efa6893a17b2274f4ce816105fff5e]
link Logic to ResumeController--><path d="M386.621,298.658 C371.357,318.332 356.995,341.214 349,365 C292.503,533.093 277.741,601.614 349,764 C362.329,794.373 388.077,820.257 412.757,839.733 " fill="none" id="Logic-&gt;ResumeController" style="stroke: #A80036; stroke-width: 1.0; stroke-dasharray: 7.0,7.0;"/><polygon fill="#A80036" points="416.707,842.804,412.0551,834.123,412.759,839.7359,407.1461,840.4398,416.707,842.804" style="stroke: #A80036; stroke-width: 1.0;"/><!--MD5=[6741a2aa1692821dc3ed1fc83dbb2896]
link Logic to Game--><path d="M559.024,298.364 C565.033,300.774 571.046,303.008 577,305 C729.162,355.912 777.519,325.365 933,365 C960.582,372.031 989.366,380.587 1017.44,389.636 " fill="none" id="Logic-&gt;Game" style="stroke: #A80036; stroke-width: 1.0;"/><polygon fill="#A80036" points="1022.3,391.211,1014.9551,384.6495,1017.5397,389.6814,1012.5078,392.266,1022.3,391.211" style="stroke: #A80036; stroke-width: 1.0;"/><!--MD5=[af3c341f28b4ad1078e652ece2043f79]
link Controller to Game--><path d="M884.762,305.114 C926.718,325.273 973.304,347.656 1017.63,368.952 " fill="none" id="Controller-&gt;Game" style="stroke: #A80036; stroke-width: 1.0;"/><polygon fill="#A80036" points="1022.19,371.142,1015.819,363.6313,1017.6858,368.9713,1012.3458,370.8381,1022.19,371.142" style="stroke: #A80036; stroke-width: 1.0;"/><!--MD5=[01a2e04289eefa46970f9de88ad0aba9]
link Controller to View--><path d="M743,305.265 C743,339.511 743,380.145 743,410.962 " fill="none" id="Controller-&gt;View" style="stroke: #A80036; stroke-width: 1.0;"/><polygon fill="#A80036" points="743,416.209,747,407.209,743,411.209,739,407.209,743,416.209" style="stroke: #A80036; stroke-width: 1.0;"/><!--MD5=[354d6deacb49030493b7fd8cb23ebdce]
reverse link Controller to StartController--><path d="M589.948,318.258 C575.217,331.941 562.318,347.488 553,365 C469.242,522.417 531.774,597.273 595,764 C605.569,791.871 622.499,820.854 636.696,842.752 " fill="none" id="Controller&lt;-StartController" style="stroke: #A80036; stroke-width: 1.0;"/><polygon fill="none" points="585.475,312.872,605.224,305.192,594.575,323.511,585.475,312.872" style="stroke: #A80036; stroke-width: 1.0;"/><!--MD5=[f447e35400d120693a19fd34f2d8422e]
reverse link Controller to ProposeController--><path d="M575.542,305.643 C505.812,334.473 440.104,362.08 437,365 C364.914,432.803 252.02,705.785 205.321,823.986 " fill="none" id="Controller&lt;-ProposeController" style="stroke: #A80036; stroke-width: 1.0;"/><polygon fill="none" points="573.132,299.065,594.29,297.901,578.476,312.005,573.132,299.065" style="stroke: #A80036; stroke-width: 1.0;"/><!--MD5=[dfabfd7c269c7ef3ab5bdd4c723fcdb8]
reverse link Controller to ResumeController--><path d="M576.406,311.863 C543.186,330.05 515.302,348.885 505,365 C406.891,518.469 445.315,753.242 465.086,842.684 " fill="none" id="Controller&lt;-ResumeController" style="stroke: #A80036; stroke-width: 1.0;"/><polygon fill="none" points="573.251,305.613,594.2,302.429,579.808,317.982,573.251,305.613" style="stroke: #A80036; stroke-width: 1.0;"/><!--MD5=[b354157758b2255f0125ccd67de2bb36]
link StateManager to Controller--><path d="M743,107.197 C743,124.078 743,143.394 743,161.809 " fill="none" id="StateManager-&gt;Controller" style="stroke: #A80036; stroke-width: 1.0;"/><polygon fill="#A80036" points="743,166.976,747,157.976,743,161.976,739,157.976,743,166.976" style="stroke: #A80036; stroke-width: 1.0;"/><!--MD5=[8e361ad3f473b5d1bafad5e76c1ff3a4]
link StateManager to Logic--><path d="M669.203,102.356 C634.534,122.958 592.521,147.926 554.339,170.617 " fill="none" id="StateManager-&gt;Logic" style="stroke: #A80036; stroke-width: 1.0;"/><polygon fill="#A80036" points="549.702,173.372,559.4823,172.2118,554,170.8172,555.3946,165.3349,549.702,173.372" style="stroke: #A80036; stroke-width: 1.0;"/><!--MD5=[ec9a6d9a86eb22a8440779a1feb84b63]
link Game to ConsoleView--><path d="M1022.45,553.525 C983.147,573.662 942.096,594.696 904.449,613.986 " fill="none" id="Game-ConsoleView" style="stroke: #A80036; stroke-width: 1.0;"/><!--MD5=[641cf42b03adaa685218345fa2ce3bac]
reverse link SecretCode to ProposedCode--><path d="M1262.34,751.929 C1262.1,775.113 1261.82,801.278 1261.58,823.813 " fill="none" id="SecretCode&lt;-ProposedCode" style="stroke: #A80036; stroke-width: 1.0;"/><polygon fill="#A80036" points="1262.48,738.672,1258.4163,744.629,1262.3521,750.6713,1266.4158,744.7143,1262.48,738.672" style="stroke: #A80036; stroke-width: 1.0;"/><!--MD5=[acd308ee4b71a76d13d401d5dcd212d7]
reverse link Game to SecretCode--><path d="M1231.57,566.809 C1238.15,592.179 1244.86,618.044 1250.38,639.328 " fill="none" id="Game&lt;-SecretCode" style="stroke: #A80036; stroke-width: 1.0;"/><polygon fill="#A80036" points="1228.25,554.018,1225.8845,560.8301,1231.2627,565.6337,1233.6282,558.8216,1228.25,554.018" style="stroke: #A80036; stroke-width: 1.0;"/><!--MD5=[20ed1ff842aaa81d8d3a309622f48cb8]
reverse link Game to ProposedCode--><path d="M1093.22,564.79 C1082.18,580.197 1072.62,596.737 1066,614 C1042.13,676.248 1032.93,706.112 1066,764 C1072.23,774.9 1120.8,803.559 1167.9,829.538 " fill="none" id="Game&lt;-ProposedCode" style="stroke: #A80036; stroke-width: 1.0;"/><polygon fill="#A80036" points="1101.08,554.31,1094.2796,556.7088,1093.8783,563.9087,1100.6787,561.5099,1101.08,554.31" style="stroke: #A80036; stroke-width: 1.0;"/><text fill="#000000" font-family="sans-serif" font-size="13" lengthAdjust="spacingAndGlyphs" textLength="29" x="1130.9981" y="822.3523">0-10</text><!--MD5=[e52ffc008679d216e2ac6e88b814cac5]
reverse link ConsoleView to SecretCodeView--><path d="M892.424,771.03 C920.706,788.439 950.376,806.779 978,824 C991.193,832.224 1005.466,841.211 1018.56,849.492 " fill="none" id="ConsoleView&lt;-SecretCodeView" style="stroke: #A80036; stroke-width: 1.0;"/><polygon fill="#A80036" points="881.243,764.152,884.2577,770.7027,891.464,770.4394,888.4493,763.8887,881.243,764.152" style="stroke: #A80036; stroke-width: 1.0;"/><!--MD5=[eb9f3b1588ac26313d03fff7dbf7a8f8]
reverse link ConsoleView to ProposedCodeView--><path d="M772.36,776.943 C783.555,828.343 804.632,891.811 844,936 C873.457,969.0639 917.77,990.9781 955.977,1004.8423 " fill="none" id="ConsoleView&lt;-ProposedCodeView" style="stroke: #A80036; stroke-width: 1.0;"/><polygon fill="#A80036" points="769.722,764.154,767.0169,770.8385,772.1469,775.9064,774.8519,769.2219,769.722,764.154" style="stroke: #A80036; stroke-width: 1.0;"/><!--MD5=[127b6f499da1c9aa451b959ca123d6c9]
reverse link ConsoleView to ResultView--><path d="M827.405,774.368 C848.845,801.203 871.166,829.141 887.344,849.391 " fill="none" id="ConsoleView&lt;-ResultView" style="stroke: #A80036; stroke-width: 1.0;"/><polygon fill="#A80036" points="819.246,764.155,819.8663,771.3394,826.7365,773.5301,826.1163,766.3457,819.246,764.155" style="stroke: #A80036; stroke-width: 1.0;"/><!--MD5=[0c600f7cf90fc71eae510c4a4ed91c91]
link Result to ProposedCode--><path d="M1495.39,515.699 C1503.39,580.467 1506.99,688.574 1459,764 C1435.73,800.58 1396.34,826.864 1358.8,844.986 " fill="none" id="Result-&gt;ProposedCode" style="stroke: #A80036; stroke-width: 1.0;"/><polygon fill="#A80036" points="1354.24,847.156,1364.0858,846.9113,1358.7572,845.0124,1360.6561,839.6838,1354.24,847.156" style="stroke: #A80036; stroke-width: 1.0;"/><!--MD5=[3950e709619a14de33a1a510717d6d94]
link Result to SecretCode--><path d="M1438.45,515.563 C1427.04,528.362 1414.74,541.806 1403,554 C1376.31,581.716 1345.52,611.414 1319.62,635.791 " fill="none" id="Result-&gt;SecretCode" style="stroke: #A80036; stroke-width: 1.0; stroke-dasharray: 7.0,7.0;"/><polygon fill="#A80036" points="1315.84,639.348,1325.1353,636.0925,1319.481,635.9212,1319.6523,630.2669,1315.84,639.348" style="stroke: #A80036; stroke-width: 1.0;"/><!--MD5=[a87683c97af1adc31cbdd532f9dc4c2b]
reverse link MasterMind to Logic--><path d="M481.254,119.77 C475.965,137.06 470.207,155.878 464.908,173.199 " fill="none" id="MasterMind&lt;-Logic" style="stroke: #A80036; stroke-width: 1.0;"/><polygon fill="#A80036" points="485.101,107.197,479.5208,111.7644,481.5907,118.6721,487.1709,114.1046,485.101,107.197" style="stroke: #A80036; stroke-width: 1.0;"/><!--MD5=[84bcb05a6cb0d44c2ce00f481b49ba45]
reverse link MasterMind to ConsoleView--><path d="M593.409,89.592 C612.698,95.649 632.943,101.744 652,107 C765.072,138.185 830.69,79.676 909,167 C1024.05,295.297 1008.87,399.269 933,554 C921.878,576.684 904.86,596.625 885.76,613.717 " fill="none" id="MasterMind&lt;-ConsoleView" style="stroke: #A80036; stroke-width: 1.0;"/><polygon fill="#A80036" points="580.894,85.626,585.4052,91.2518,592.3333,89.2514,587.8221,83.6256,580.894,85.626" style="stroke: #A80036; stroke-width: 1.0;"/><!--MD5=[dd8dc07e8539416bc4114d474c49a7de]
reverse link Token to Code--><path d="M1469.97,281.613 C1519.17,323.052 1591.53,383.987 1637.18,422.435 " fill="none" id="Token&lt;-Code" style="stroke: #A80036; stroke-width: 1.0;"/><polygon fill="#A80036" points="1459.84,273.081,1461.8477,280.007,1469.0131,280.8175,1467.0054,273.8916,1459.84,273.081" style="stroke: #A80036; stroke-width: 1.0;"/><text fill="#000000" font-family="sans-serif" font-size="13" lengthAdjust="spacingAndGlyphs" textLength="8" x="1458.2729" y="292.575">4</text><text fill="#000000" font-family="sans-serif" font-size="13" lengthAdjust="spacingAndGlyphs" textLength="8" x="1620.5476" y="411.3335">1</text><!--MD5=[3cc72d38817735579eb857500256ebde]
reverse link Code to ProposedCode--><path d="M1660.33,515.683 C1634.2,582.185 1582.26,693.727 1506,764 C1462.89,803.721 1403.62,832.038 1354.17,850.633 " fill="none" id="Code&lt;-ProposedCode" style="stroke: #A80036; stroke-width: 1.0;"/><polygon fill="none" points="1653.8,513.179,1667.47,496.988,1666.88,518.169,1653.8,513.179" style="stroke: #A80036; stroke-width: 1.0;"/><!--MD5=[37ff2eae32d91fa2c735d414bb1280fd]
reverse link Code to SecretCode--><path d="M1627.65,509.911 C1609.87,525.211 1589.33,541.353 1569,554 C1515.2,587.462 1451.59,616.768 1396.34,639.371 " fill="none" id="Code&lt;-SecretCode" style="stroke: #A80036; stroke-width: 1.0;"/><polygon fill="none" points="1623.19,504.511,1642.81,496.507,1632.46,514.999,1623.19,504.511" style="stroke: #A80036; stroke-width: 1.0;"/><!--MD5=[a3459363d9f4cd517beea83c534fa228]
link SecretCode to SecretCodeView--><path d="M1212.01,738.672 C1176.78,772.305 1130.84,816.155 1099.76,845.819 " fill="none" id="SecretCode-&gt;SecretCodeView" style="stroke: #A80036; stroke-width: 1.0;"/><polygon fill="#A80036" points="1096.05,849.365,1105.3193,846.0364,1099.6639,845.9096,1099.7907,840.2542,1096.05,849.365" style="stroke: #A80036; stroke-width: 1.0;"/><!--MD5=[7bbdeba25fd74070862a983bcb3ca2e9]
link ProposedCode to ProposedCodeView--><path d="M1173.77,936.041 C1143.3,955.267 1110.1,976.2193 1083.49,993.0104 " fill="none" id="ProposedCode-&gt;ProposedCodeView" style="stroke: #A80036; stroke-width: 1.0;"/><polygon fill="#A80036" points="1078.94,995.8816,1088.6852,994.4564,1083.1671,993.2111,1084.4124,987.693,1078.94,995.8816" style="stroke: #A80036; stroke-width: 1.0;"/><!--MD5=[3ddf1d99a7261f24f8091f1165c44527]
link Result to ResultView--><path d="M1447.64,515.904 C1435.02,530.384 1419.85,544.561 1403,554 C1270.26,628.335 1190.79,526.989 1066,614 C984.091,671.11 939.056,786.555 920.791,844.368 " fill="none" id="Result-&gt;ResultView" style="stroke: #A80036; stroke-width: 1.0;"/><polygon fill="#A80036" points="919.21,849.442,925.7062,842.0394,920.6974,844.6684,918.0684,839.6595,919.21,849.442" style="stroke: #A80036; stroke-width: 1.0;"/><!--MD5=[d90a506525824c5a612a889bdb407f5b]
@startuml
abstract class Controller {
    + Game game
    + StateManager stateManager
    + abstract void accept(View view)
    + int getAttempts()
    + ArrayList<ProposedCode> getProposedCodes()
    + void addAtempt()
    + SecretCode getSecretCode()
}

class Logic {
    - StateManager stateManager
    - Game game
    - Map<State, Controller> controllers
    + Logic()
    + Controller getController()
    + State getState()

}

enum ProposedCodeState {

}

class StartController {
    + void accept(View view)
    + void start()
}

class ResumeController {
    + void accept(View view)
     + void start()
}

class ProposeController {
    + void accept(View view)
    + ProposedCodeState propose(String stringProposedCode)
    - boolean isWinner()
    - boolean createProposedCode(String stringProposedCode)
    - boolean attemptsRemained()
}

enum State {
}

class StateManager {
    - State state
    + void next()
    + void reset()
    + State getValueState()
}

enum Token {
    + boolean isToken(Character tokenChar)
    + Token createToken (Character tokenChar)
}

abstract class Code {
    + ArrayList<Token> code
    + ArrayList<Token> getCode()
}

class SecretCode {
    + ArrayList<Token> getSecretCode()
    - Token getTokenRandom()
    - boolean existToken(ArrayList<Token> code, Token token)
    + Result checkProposedCode(ProposedCode proposedCode)
}

class ProposedCode {
    - Result result
    + boolean codeIsEmpty()
    + boolean isWinner()
    + Result getResult()
    + void setResult(Result result)
}

class Result {
    - int deads
    - int woundeds
    + boolean isWinner()
    + int getDeads()
    + int getWoundeds()
}

class MasterMind {
    - Logic logic
    - GameView gameView
    + public static void main()
    - void play()
}

class Game {
    - int attempts
    - SecretCode secretCode
    - void initialize()
    + boolean createProposedCode(String stringProposedCode)
    - boolean saveProposedCode(ProposedCode proposedCode)
    - ProposedCode removetLastProposedCOde()
    + void addAtempt()
    + boolean isWinner()
    + boolean anyAttemptsRemained()
    + int getAttempts()
    + ArrayList<ProposedCodes> getProposedCodes()
}

class ConsoleView extends View{
    - Controller controller
    - ProposedCodeState proposedCodeState
    - SecretCodeView secretCodeView
    + void visit(StartController startController)
    + void visit(ResumeController resumeController)
    + void visit(ProposeController proposeController)
    - void printProposedCodesArray()
    - void printProposedState()
}

class SecretCodeView {
    + void print()
}

class ProposedCodeView {
    + void print()
}

class ResultView {
    + void print()
}

abstract class View {
    + abstract void visit(StartController startController)
    + abstract void visit(ResumeController resumeController)
    + abstract void visit(ProposeController proposeController)
}

ConsoleView ..> ProposeController
ConsoleView ..> StartController
ConsoleView ..> ResumeController

ProposeController - -> ProposedCodeState
ProposedCode - -> ProposedCodeState

StateManager *- - State

Logic ..> StartController
Logic ..> ProposeController
Logic ..> ResumeController

Logic - -> Game
Controller - -> Game
Controller - -> View

Controller <|- - StartController
Controller <|- - ProposeController
Controller <|- - ResumeController

StateManager - -> Controller
StateManager - -> Logic

Game - - ConsoleView

SecretCode *- - ProposedCode

Game *- - SecretCode
Game *- - "0-10" ProposedCode

ConsoleView *- - SecretCodeView
ConsoleView *- - ProposedCodeView
ConsoleView *- - ResultView

Result - -> ProposedCode
Result ..> SecretCode

MasterMind *- - Logic
MasterMind *- - ConsoleView

Token "4" *- - "1" Code
Code <|- - ProposedCode
Code <|- - SecretCode

SecretCode - -> SecretCodeView
ProposedCode - -> ProposedCodeView
Result - -> ResultView
@enduml

PlantUML version 1.2019.11(Sun Sep 22 10:02:15 UTC 2019)
(GPL source distribution)
Java Runtime: Java(TM) SE Runtime Environment
JVM: Java HotSpot(TM) 64-Bit Server VM
Java Version: 1.7.0_25-b15
Operating System: Linux
Default Encoding: UTF-8
Language: en
Country: US
--></g></svg>